<?xml version="1.0" encoding="UTF-8" standalone="no"?>
<!DOCTYPE svg PUBLIC "-//W3C//DTD SVG 1.1//EN"
 "http://www.w3.org/Graphics/SVG/1.1/DTD/svg11.dtd">
<!-- Generated by graphviz version 2.38.0 (20140413.2041)
 -->
<!-- Title: %3 Pages: 1 -->
<svg width="676pt" height="240pt"
 viewBox="0.00 0.00 676.30 240.00" xmlns="http://www.w3.org/2000/svg" xmlns:xlink="http://www.w3.org/1999/xlink">
<g id="graph0" class="graph" transform="scale(1 1) rotate(0) translate(4 236)">
<title>%3</title>
<polygon fill="#333333" stroke="none" points="-4,4 -4,-236 672.302,-236 672.302,4 -4,4"/>
<text text-anchor="middle" x="334.151" y="-9.2" font-family="Times,serif" font-size="16.00" fill="white">Core ISAD&#45;G</text>
<!-- F -->
<g id="node1" class="node"><title>F</title>
<polygon fill="#006699" stroke="white" points="483.573,-214 462.546,-232 420.491,-232 399.464,-214 420.491,-196 462.546,-196 483.573,-214"/>
<text text-anchor="middle" x="441.519" y="-210.3" font-family="Helvetica,sans-Serif" font-size="14.00" fill="white">Fonds</text>
</g>
<!-- 1 -->
<g id="node2" class="node"><title>1</title>
<polygon fill="#006699" stroke="white" points="322.087,-129 296.303,-147 244.734,-147 218.95,-129 244.734,-111 296.303,-111 322.087,-129"/>
<text text-anchor="middle" x="270.519" y="-125.3" font-family="Helvetica,sans-Serif" font-size="14.00" fill="white">ID Area</text>
</g>
<!-- F&#45;&gt;1 -->
<g id="edge1" class="edge"><title>F&#45;&gt;1</title>
<path fill="none" stroke="white" stroke-dasharray="5,2" d="M415.175,-200.213C386.951,-186.514 341.859,-164.627 309.52,-148.931"/>
<polygon fill="white" stroke="white" points="300.345,-144.477 311.306,-144.795 304.843,-146.66 309.341,-148.844 309.341,-148.844 309.341,-148.844 304.843,-146.66 307.376,-152.892 300.345,-144.477 300.345,-144.477"/>
<text text-anchor="middle" x="370.519" y="-168.4" font-family="Courier,monospace" font-size="12.00" fill="white">1</text>
</g>
<!-- 2 -->
<g id="node3" class="node"><title>2</title>
<polygon fill="#006699" stroke="white" points="633.126,-129 592.322,-147 510.715,-147 469.912,-129 510.715,-111 592.322,-111 633.126,-129"/>
<text text-anchor="middle" x="551.519" y="-125.3" font-family="Helvetica,sans-Serif" font-size="14.00" fill="white">Context Area</text>
</g>
<!-- F&#45;&gt;2 -->
<g id="edge2" class="edge"><title>F&#45;&gt;2</title>
<path fill="none" stroke="white" stroke-dasharray="5,2" d="M463.251,-196.602C479.649,-184.229 502.365,-167.088 520.647,-153.294"/>
<polygon fill="white" stroke="white" points="528.695,-147.221 523.423,-156.837 524.704,-150.233 520.713,-153.245 520.713,-153.245 520.713,-153.245 524.704,-150.233 518.002,-149.652 528.695,-147.221 528.695,-147.221"/>
<text text-anchor="middle" x="507.519" y="-168.4" font-family="Courier,monospace" font-size="12.00" fill="white">2</text>
</g>
<!-- 1.1 -->
<g id="node4" class="node"><title>1.1</title>
<polygon fill="#006699" stroke="white" points="57.0557,-44 42.7872,-62 14.25,-62 -0.0185849,-44 14.25,-26 42.7872,-26 57.0557,-44"/>
<text text-anchor="middle" x="28.5186" y="-40.3" font-family="Helvetica,sans-Serif" font-size="14.00" fill="white">Ref</text>
</g>
<!-- 1&#45;&gt;1.1 -->
<g id="edge3" class="edge"><title>1&#45;&gt;1.1</title>
<path fill="none" stroke="white" stroke-dasharray="5,2" d="M234.628,-117.969C193.477,-106.106 124.256,-85.0396 66.5186,-62 63.8126,-60.9202 61.0165,-59.7589 58.2258,-58.5686"/>
<polygon fill="white" stroke="white" points="48.8974,-54.4859 59.8627,-54.3729 53.4779,-56.4907 58.0585,-58.4954 58.0585,-58.4954 58.0585,-58.4954 53.4779,-56.4907 56.2542,-62.6179 48.8974,-54.4859 48.8974,-54.4859"/>
<text text-anchor="middle" x="162.019" y="-83.4" font-family="Courier,monospace" font-size="12.00" fill="white">1.1</text>
</g>
<!-- 1.2 -->
<g id="node5" class="node"><title>1.2</title>
<polygon fill="#006699" stroke="white" points="145.566,-44 128.042,-62 92.9949,-62 75.4712,-44 92.9949,-26 128.042,-26 145.566,-44"/>
<text text-anchor="middle" x="110.519" y="-40.3" font-family="Helvetica,sans-Serif" font-size="14.00" fill="white">Title</text>
</g>
<!-- 1&#45;&gt;1.2 -->
<g id="edge4" class="edge"><title>1&#45;&gt;1.2</title>
<path fill="none" stroke="white" stroke-dasharray="5,2" d="M241.544,-112.969C213.59,-98.4686 171.372,-76.5679 142.46,-61.5698"/>
<polygon fill="white" stroke="white" points="133.576,-56.9609 144.525,-57.5712 138.014,-59.2633 142.452,-61.5658 142.452,-61.5658 142.452,-61.5658 138.014,-59.2633 140.38,-65.5603 133.576,-56.9609 133.576,-56.9609"/>
<text text-anchor="middle" x="212.019" y="-83.4" font-family="Courier,monospace" font-size="12.00" fill="white">1.2</text>
</g>
<!-- 1.3 -->
<g id="node6" class="node"><title>1.3</title>
<polygon fill="#006699" stroke="white" points="249.075,-44 227.797,-62 185.24,-62 163.962,-44 185.24,-26 227.797,-26 249.075,-44"/>
<text text-anchor="middle" x="206.519" y="-40.3" font-family="Helvetica,sans-Serif" font-size="14.00" fill="white">Dates</text>
</g>
<!-- 1&#45;&gt;1.3 -->
<g id="edge5" class="edge"><title>1&#45;&gt;1.3</title>
<path fill="none" stroke="white" stroke-dasharray="5,2" d="M257.258,-110.802C248.247,-99.1171 236.177,-83.4629 226.069,-70.3546"/>
<polygon fill="white" stroke="white" points="219.762,-62.1756 229.432,-67.3469 222.816,-66.1352 225.869,-70.0948 225.869,-70.0948 225.869,-70.0948 222.816,-66.1352 222.305,-72.8426 219.762,-62.1756 219.762,-62.1756"/>
<text text-anchor="middle" x="254.019" y="-83.4" font-family="Courier,monospace" font-size="12.00" fill="white">1.3</text>
</g>
<!-- 1.4 -->
<g id="node7" class="node"><title>1.4</title>
<polygon fill="#006699" stroke="white" points="403.608,-44 369.563,-62 301.474,-62 267.429,-44 301.474,-26 369.563,-26 403.608,-44"/>
<text text-anchor="middle" x="335.519" y="-40.3" font-family="Helvetica,sans-Serif" font-size="14.00" fill="white">Level Desc</text>
</g>
<!-- 1&#45;&gt;1.4 -->
<g id="edge6" class="edge"><title>1&#45;&gt;1.4</title>
<path fill="none" stroke="white" stroke-dasharray="5,2" d="M283.987,-110.802C293.138,-99.1171 305.397,-83.4629 315.663,-70.3546"/>
<polygon fill="white" stroke="white" points="322.068,-62.1756 319.445,-72.8232 318.985,-66.1122 315.902,-70.0487 315.902,-70.0487 315.902,-70.0487 318.985,-66.1122 312.359,-67.2741 322.068,-62.1756 322.068,-62.1756"/>
<text text-anchor="middle" x="319.019" y="-83.4" font-family="Courier,monospace" font-size="12.00" fill="white">1.4</text>
</g>
<!-- 1.5 -->
<g id="node8" class="node"><title>1.5</title>
<polygon fill="#006699" stroke="white" points="546.6,-44 515.559,-62 453.478,-62 422.437,-44 453.478,-26 515.559,-26 546.6,-44"/>
<text text-anchor="middle" x="484.519" y="-40.3" font-family="Helvetica,sans-Serif" font-size="14.00" fill="white">Unit Desc</text>
</g>
<!-- 1&#45;&gt;1.5 -->
<g id="edge7" class="edge"><title>1&#45;&gt;1.5</title>
<path fill="none" stroke="white" stroke-dasharray="5,2" d="M303.021,-115.394C339.175,-101.371 397.858,-78.6114 438.671,-62.7819"/>
<polygon fill="white" stroke="white" points="448.122,-59.1165 440.426,-66.9282 443.46,-60.9246 438.798,-62.7327 438.798,-62.7327 438.798,-62.7327 443.46,-60.9246 437.171,-58.5372 448.122,-59.1165 448.122,-59.1165"/>
<text text-anchor="middle" x="402.019" y="-83.4" font-family="Courier,monospace" font-size="12.00" fill="white">1.5</text>
</g>
<!-- 2.1 -->
<g id="node9" class="node"><title>2.1</title>
<polygon fill="#006699" stroke="white" points="668.087,-44 642.303,-62 590.734,-62 564.95,-44 590.734,-26 642.303,-26 668.087,-44"/>
<text text-anchor="middle" x="616.519" y="-40.3" font-family="Helvetica,sans-Serif" font-size="14.00" fill="white">Creator</text>
</g>
<!-- 2&#45;&gt;2.1 -->
<g id="edge8" class="edge"><title>2&#45;&gt;2.1</title>
<path fill="none" stroke="white" stroke-dasharray="5,2" d="M564.987,-110.802C574.138,-99.1171 586.397,-83.4629 596.663,-70.3546"/>
<polygon fill="white" stroke="white" points="603.068,-62.1756 600.445,-72.8232 599.985,-66.1122 596.902,-70.0487 596.902,-70.0487 596.902,-70.0487 599.985,-66.1122 593.359,-67.2741 603.068,-62.1756 603.068,-62.1756"/>
<text text-anchor="middle" x="600.019" y="-83.4" font-family="Courier,monospace" font-size="12.00" fill="white">2.1</text>
</g>
</g>
</svg>
