<?xml version="1.0" encoding="UTF-8" standalone="no"?>
<!DOCTYPE svg PUBLIC "-//W3C//DTD SVG 1.1//EN"
 "http://www.w3.org/Graphics/SVG/1.1/DTD/svg11.dtd">
<!-- Generated by graphviz version 2.38.0 (20140413.2041)
 -->
<!-- Title: %3 Pages: 1 -->
<svg width="269pt" height="360pt"
 viewBox="0.00 0.00 269.50 360.00" xmlns="http://www.w3.org/2000/svg" xmlns:xlink="http://www.w3.org/1999/xlink">
<g id="graph0" class="graph" transform="scale(1 1) rotate(0) translate(4 356)">
<title>%3</title>
<polygon fill="white" stroke="none" points="-4,4 -4,-356 265.496,-356 265.496,4 -4,4"/>
<!-- A -->
<g id="node1" class="node"><title>A</title>
<ellipse fill="none" stroke="black" cx="45.496" cy="-334" rx="45.4919" ry="18"/>
<text text-anchor="middle" x="45.496" y="-330.3" font-family="Times,serif" font-size="14.00">Node A</text>
</g>
<!-- B -->
<g id="node2" class="node"><title>B</title>
<ellipse fill="none" stroke="black" cx="123.496" cy="-229.5" rx="45.4919" ry="18"/>
<text text-anchor="middle" x="123.496" y="-225.8" font-family="Times,serif" font-size="14.00">Node B</text>
</g>
<!-- A&#45;&gt;B -->
<g id="edge1" class="edge"><title>A&#45;&gt;B</title>
<path fill="none" stroke="black" d="M58.028,-316.532C70.6505,-299.944 90.2767,-274.153 104.751,-255.133"/>
<polygon fill="black" stroke="black" points="107.724,-257.005 110.995,-246.928 102.154,-252.766 107.724,-257.005"/>
<text text-anchor="middle" x="107.996" y="-286.8" font-family="Times,serif" font-size="14.00">Edge 1</text>
</g>
<!-- C -->
<g id="node3" class="node"><title>C</title>
<ellipse fill="none" stroke="black" cx="33.496" cy="-108" rx="27" ry="18"/>
<text text-anchor="middle" x="33.496" y="-104.3" font-family="Times,serif" font-size="14.00">C</text>
</g>
<!-- A&#45;&gt;C -->
<g id="edge2" class="edge"><title>A&#45;&gt;C</title>
<path fill="none" stroke="black" d="M36.7546,-316.214C30.2719,-302.771 21.9799,-283.215 18.496,-265 9.94579,-220.297 18.974,-167.408 26.2588,-136.117"/>
<polygon fill="black" stroke="black" points="29.7574,-136.543 28.7311,-125.998 22.9575,-134.882 29.7574,-136.543"/>
<text text-anchor="middle" x="43.996" y="-225.8" font-family="Times,serif" font-size="14.00">Edge 2</text>
</g>
<!-- B&#45;&gt;C -->
<g id="edge3" class="edge"><title>B&#45;&gt;C</title>
<path fill="none" stroke="black" d="M110.982,-211.884C95.4097,-191.208 68.7242,-155.775 51.0963,-132.369"/>
<polygon fill="black" stroke="black" points="53.8608,-130.222 45.049,-124.34 48.2692,-134.433 53.8608,-130.222"/>
</g>
<!-- E -->
<g id="node5" class="node"><title>E</title>
<polygon fill="#cccccc" stroke="black" points="172.496,-143 102.496,-143 102.496,-73 172.496,-73 172.496,-143"/>
<text text-anchor="middle" x="137.496" y="-104.3" font-family="Times,serif" font-size="14.00">Node E</text>
</g>
<!-- B&#45;&gt;E -->
<g id="edge7" class="edge"><title>B&#45;&gt;E</title>
<path fill="none" stroke="red" d="M125.502,-211.379C127.274,-196.251 129.937,-173.517 132.305,-153.312"/>
<polygon fill="red" stroke="red" points="135.786,-153.676 133.473,-143.336 128.833,-152.861 135.786,-153.676"/>
</g>
<!-- D -->
<g id="node4" class="node"><title>D</title>
<polygon fill="#cccccc" stroke="black" points="257.996,-265 186.996,-265 186.996,-194 257.996,-194 257.996,-265"/>
<text text-anchor="middle" x="222.496" y="-225.8" font-family="Times,serif" font-size="14.00">Node D</text>
</g>
<!-- D&#45;&gt;E -->
<g id="edge4" class="edge"><title>D&#45;&gt;E</title>
<path fill="none" stroke="black" d="M186.811,-201.13C172.94,-190.22 159.799,-179.434 157.496,-176 152.833,-169.047 149.232,-160.979 146.457,-152.9"/>
<polygon fill="black" stroke="black" points="149.737,-151.656 143.468,-143.114 143.042,-153.701 149.737,-151.656"/>
<text text-anchor="middle" x="182.996" y="-164.8" font-family="Times,serif" font-size="14.00">Edge 3</text>
</g>
<!-- F -->
<g id="node6" class="node"><title>F</title>
<polygon fill="#cccccc" stroke="black" points="212.496,-36 176.496,-36 176.496,-0 212.496,-0 212.496,-36"/>
<text text-anchor="middle" x="194.496" y="-14.3" font-family="Times,serif" font-size="14.00">F</text>
</g>
<!-- D&#45;&gt;F -->
<g id="edge5" class="edge"><title>D&#45;&gt;F</title>
<path fill="none" stroke="black" d="M217.872,-193.905C212.345,-152.547 203.208,-84.1831 198.149,-46.3355"/>
<polygon fill="black" stroke="black" points="201.572,-45.523 196.778,-36.0749 194.634,-46.4504 201.572,-45.523"/>
<text text-anchor="middle" x="235.996" y="-104.3" font-family="Times,serif" font-size="14.00">Edge 4</text>
</g>
<!-- E&#45;&gt;F -->
<g id="edge6" class="edge"><title>E&#45;&gt;F</title>
<path fill="none" stroke="black" d="M159.534,-72.9769C165.579,-63.6439 172.034,-53.6786 177.731,-44.8835"/>
<polygon fill="black" stroke="black" points="180.845,-46.513 183.344,-36.2171 174.97,-42.7075 180.845,-46.513"/>
</g>
</g>
</svg>
