<?xml version="1.0" encoding="UTF-8" standalone="no"?>
<!DOCTYPE svg PUBLIC "-//W3C//DTD SVG 1.1//EN"
 "http://www.w3.org/Graphics/SVG/1.1/DTD/svg11.dtd">
<!-- Generated by graphviz version 2.38.0 (20140413.2041)
 -->
<!-- Title: %3 Pages: 1 -->
<svg width="150pt" height="204pt"
 viewBox="0.00 0.00 149.85 204.00" xmlns="http://www.w3.org/2000/svg" xmlns:xlink="http://www.w3.org/1999/xlink">
<g id="graph0" class="graph" transform="scale(1 1) rotate(0) translate(4 200)">
<title>%3</title>
<polygon fill="white" stroke="none" points="-4,4 -4,-200 145.847,-200 145.847,4 -4,4"/>
<!-- 1.1 -->
<g id="node1" class="node"><title>1.1</title>
<ellipse fill="none" stroke="black" cx="66.8472" cy="-178" rx="53.8905" ry="18"/>
<text text-anchor="middle" x="66.8472" y="-174.3" font-family="Times,serif" font-size="14.00">Ref. code</text>
</g>
<!-- 1.2 -->
<g id="node2" class="node"><title>1.2</title>
<ellipse fill="none" stroke="black" cx="31.8472" cy="-91" rx="31.6951" ry="18"/>
<text text-anchor="middle" x="31.8472" y="-87.3" font-family="Times,serif" font-size="14.00">Title</text>
</g>
<!-- 1.1&#45;&gt;1.2 -->
<g id="edge1" class="edge"><title>1.1&#45;&gt;1.2</title>
<path fill="none" stroke="black" d="M47.9093,-160.9C42.7619,-155.458 37.7989,-148.976 34.8472,-142 31.8989,-135.032 30.6081,-127.026 30.1887,-119.491"/>
<polygon fill="black" stroke="black" points="33.6869,-119.279 30.094,-109.312 26.6872,-119.344 33.6869,-119.279"/>
<text text-anchor="middle" x="60.3472" y="-130.8" font-family="Times,serif" font-size="14.00">Edge 1</text>
</g>
<!-- C -->
<g id="node3" class="node"><title>C</title>
<ellipse fill="none" stroke="black" cx="76.8472" cy="-18" rx="27" ry="18"/>
<text text-anchor="middle" x="76.8472" y="-14.3" font-family="Times,serif" font-size="14.00">C</text>
</g>
<!-- 1.1&#45;&gt;C -->
<g id="edge2" class="edge"><title>1.1&#45;&gt;C</title>
<path fill="none" stroke="black" d="M78.1217,-160.259C81.261,-154.691 84.2476,-148.299 85.8472,-142 94.0547,-109.678 88.944,-71.1568 83.6826,-45.9438"/>
<polygon fill="black" stroke="black" points="87.0586,-45.0027 81.4569,-36.0098 80.228,-46.5332 87.0586,-45.0027"/>
<text text-anchor="middle" x="116.347" y="-87.3" font-family="Times,serif" font-size="14.00">Edge 2</text>
</g>
<!-- 1.2&#45;&gt;C -->
<g id="edge3" class="edge"><title>1.2&#45;&gt;C</title>
<path fill="none" stroke="black" d="M42.0584,-73.889C47.6968,-64.9928 54.8205,-53.7532 61.151,-43.765"/>
<polygon fill="black" stroke="black" points="64.2792,-45.3673 66.6764,-35.0472 58.3667,-41.62 64.2792,-45.3673"/>
</g>
</g>
</svg>
